<svg xmlns="http://www.w3.org/2000/svg" width="39" height="12" viewBox="0 0 39 12" fill="none">
<g clip-path="url(#clip0_13539_1112)">
<path d="M31.9766 5.51275C32.1719 5.31155 32.3819 5.13119 32.6136 4.97604C33.1978 4.58382 33.8421 4.35886 34.5491 4.31425C36.4579 4.19353 38.1504 5.42306 38.5975 7.25474C38.6631 7.52237 38.7035 7.79484 38.7 8.07022C38.6897 8.91092 38.6729 9.75112 38.6586 10.5918C38.6557 10.7785 38.6527 10.9651 38.6498 11.1513C38.6498 11.1736 38.6478 11.1954 38.6458 11.2318C38.5245 11.2211 38.4062 11.2177 38.2904 11.1993C37.5055 11.0733 37.014 10.6059 36.7399 9.89318C36.595 9.51695 36.5447 9.12376 36.5462 8.7228C36.5472 8.45615 36.5368 8.18901 36.5491 7.92332C36.56 7.69157 36.4949 7.48455 36.3805 7.2911C36.0162 6.6744 35.468 6.35005 34.7423 6.37623C34.0433 6.40144 33.5325 6.74809 33.2081 7.35752C33.1899 7.39146 33.1845 7.43558 33.1845 7.47534C33.1835 8.69759 33.1835 9.91984 33.1835 11.1416V11.2352C33.0336 11.2192 32.8892 11.2143 32.7501 11.1867C31.8189 11.0005 31.2598 10.4212 30.9847 9.54992C30.9004 9.28181 30.8709 9.00497 30.8709 8.72474C30.8709 8.413 30.8684 8.10125 30.8723 7.78951C30.8738 7.66151 30.8285 7.54806 30.7792 7.43607C30.4642 6.71997 29.733 6.31514 28.9891 6.37672C28.1984 6.44217 27.5314 7.02057 27.3849 7.80454C27.3519 7.98101 27.347 8.16234 27.3312 8.34173C27.2637 9.11697 26.9846 9.81124 26.4872 10.4149C25.8503 11.1882 25.0275 11.6575 24.0262 11.8044C23.058 11.9459 22.175 11.7069 21.3675 11.177C21.1028 11.0034 20.8676 10.7945 20.6532 10.5574C20.6418 10.5671 20.6305 10.5748 20.6216 10.5845C20.0231 11.2269 19.29 11.6327 18.4179 11.7903C17.6661 11.9261 16.9395 11.8257 16.2527 11.5101C15.0158 10.9414 14.2522 9.98966 14.0111 8.66608C13.7119 7.02105 14.5519 5.393 16.0659 4.62357C16.6101 4.34674 17.1899 4.1945 17.8027 4.20565C18.7058 4.22213 19.5119 4.5174 20.2095 5.08513C20.3633 5.21022 20.5033 5.3513 20.6527 5.48802C21.4104 4.67351 22.3579 4.21244 23.4898 4.20614C24.6222 4.19983 25.5737 4.65169 26.3472 5.46475C27.131 4.70163 28.0687 4.29777 29.1725 4.30698C30.2763 4.31668 31.2061 4.73702 31.9762 5.51323L31.9766 5.51275ZM25.2429 7.92041C25.235 7.50394 25.0422 7.06275 24.6474 6.71803C24.2742 6.39174 23.8369 6.2269 23.3321 6.2846C22.4733 6.38253 21.7984 7.11172 21.7787 7.96986C21.7648 8.57154 22.0084 9.0617 22.4935 9.42823C22.809 9.66628 23.1713 9.7967 23.5702 9.77537C24.5108 9.72446 25.2419 8.95067 25.2424 7.92089L25.2429 7.92041ZM16.055 8.12452C16.0595 8.50124 16.2246 8.91819 16.5707 9.25611C16.9646 9.64107 17.4413 9.835 17.9989 9.76228C18.8478 9.65173 19.4976 8.92595 19.5178 8.07846C19.5311 7.51121 19.3127 7.03705 18.8685 6.67537C18.4934 6.36944 18.0571 6.2206 17.5675 6.28945C16.6994 6.41211 16.056 7.1568 16.055 8.12452Z" fill="#111827"/>
<path d="M7.2044 4.93364C7.57661 4.81631 7.97297 4.7528 8.38511 4.7528C9.08516 4.7528 9.74133 4.93655 10.3083 5.25654C9.49582 3.85635 8.69964 2.48816 7.9848 1.2727C7.8936 1.11755 7.79056 0.963377 7.66633 0.833443C6.93375 0.0683828 6.04735 -0.167729 5.01947 0.115896C4.84741 0.163409 4.68374 0.236134 4.52795 0.332615C4.5388 0.353462 4.54767 0.371401 4.55753 0.388855C5.36653 1.76722 6.28004 3.34049 7.2044 4.93364Z" fill="#4B4EFC"/>
<path d="M13.911 11.4495C13.3933 10.5676 12.8328 9.6057 12.254 8.60938C12.2402 9.65467 11.798 10.5981 11.092 11.2779C11.8473 11.8776 12.7012 12.0056 13.6502 11.6604C13.7522 11.6231 13.8474 11.5683 13.9519 11.5188C13.9341 11.4883 13.9228 11.4689 13.9115 11.45L13.911 11.4495Z" fill="#4B4EFC"/>
<path d="M7.15952 4.90067C6.74245 5.13824 6.38799 5.44174 6.10008 5.78888C5.32115 4.46772 4.54519 3.15238 3.75788 1.8191C3.66619 1.66396 3.56315 1.51026 3.43842 1.38081C2.70535 0.616239 1.81846 0.382067 0.791067 0.666662C0.619014 0.714175 0.455834 0.787869 0.300049 0.883865C0.310895 0.904713 0.319768 0.922651 0.330121 0.940105C2.14186 4.01489 3.95409 7.08968 5.76583 10.1645C5.87823 10.3555 6.0069 10.5349 6.17058 10.6852C6.17748 10.6915 6.18438 10.6968 6.19079 10.7026C7.38481 12.0437 9.41347 12.4131 11.0408 11.4856C12.89 10.4316 13.5201 8.10297 12.4483 6.28438C11.3766 4.46578 9.00872 3.84617 7.15952 4.90019V4.90067ZM10.0144 9.71794C9.15908 10.2057 8.06366 9.91865 7.56771 9.07748C7.07176 8.2363 7.36361 7.15901 8.21895 6.67127C9.07429 6.18353 10.1697 6.47055 10.6657 7.31173C11.1616 8.15291 10.8698 9.2302 10.0144 9.71794Z" fill="#111827"/>
</g>
<defs>
<clipPath id="clip0_13539_1112">
<rect width="38.4" height="12" fill="white" transform="translate(0.300049)"/>
</clipPath>
</defs>
</svg>
