<svg width="47" height="16" viewBox="0 0 47 16" fill="none" xmlns="http://www.w3.org/2000/svg">
<g clip-path="url(#clip0_3_8800)">
<path d="M18.1362 4.89954H17.0417V11.1018H20.9034V10.0271H18.1362V4.89954Z" fill="black"/>
<path d="M24.7091 4.89954H23.6147V11.1018H24.7091V4.89954Z" fill="black"/>
<path d="M27.0733 5.97274H29.0328V11.1018H30.1273V5.97274H32.0868V4.89954H27.0733V5.97274Z" fill="black"/>
<path d="M36.59 4.7998C34.8253 4.7998 33.3881 6.23528 33.3881 8.00131C33.3881 9.76735 34.8238 11.1998 36.59 11.1998C38.3563 11.1998 39.7905 9.76433 39.7905 8.00131C39.7905 6.2383 38.3548 4.7998 36.59 4.7998ZM36.59 10.1251C35.4276 10.1251 34.4841 9.17113 34.4841 8.00131C34.4841 6.8315 35.4276 5.87452 36.59 5.87452C37.7525 5.87452 38.6945 6.82848 38.6945 8.00131C38.6945 9.17414 37.751 10.1251 36.59 10.1251Z" fill="black"/>
<path d="M11.7354 4.7998C9.97061 4.7998 8.53495 6.23528 8.53495 8.00131C8.53495 9.76735 9.97061 11.1998 11.7354 11.1998C13.5001 11.1998 14.9343 9.76433 14.9343 8.00131C14.9343 6.2383 13.4986 4.7998 11.7354 4.7998ZM11.7354 10.1251C10.5745 10.1251 9.62944 9.17113 9.62944 8.00131C9.62944 6.8315 10.5745 5.87452 11.7354 5.87452C12.8963 5.87452 13.8413 6.82848 13.8413 8.00131C13.8413 9.17414 12.8963 10.1251 11.7354 10.1251Z" fill="black"/>
<path d="M3.43545 7.95584L0.695459 4.88565H0.476562V11.1015H1.56652V7.46527L3.37808 9.49395H3.49281L5.30588 7.46527V11.1015H6.39584V4.88565H6.17694L3.43545 7.95584Z" fill="black"/>
<path d="M45.192 8.75312C46.06 8.50557 46.6714 7.89274 46.6714 6.87538V6.85727C46.6714 6.31689 46.4872 5.85652 46.1581 5.51991C45.7581 5.13048 45.1482 4.89954 44.3677 4.89954H41.9266V11.1018H43.0166V8.94029H44.0567L45.5814 11.1018H46.8661L45.1905 8.75312H45.192ZM43.0181 7.97425V5.89123H44.2786C45.0848 5.89123 45.5648 6.25501 45.5648 6.91916V6.93727C45.5648 7.5652 45.0667 7.97274 44.2877 7.97274H43.0181V7.97425Z" fill="black"/>
</g>
<defs>
<clipPath id="clip0_3_8800">
<rect width="46.4" height="16" fill="white" transform="translate(0.476562)"/>
</clipPath>
</defs>
</svg>
